<?xml version="1.0" encoding="UTF-8"?>
<svg id="Layer_2" data-name="Layer 2" xmlns="http://www.w3.org/2000/svg" viewBox="0 0 76.9 61.82">
  <defs>
    <style>
      .cls-1 {
        fill: #f4ee78;
      }

      .cls-2 {
        fill: #231f20;
      }
    </style>
  </defs>
  <g id="Layer_1-2" data-name="Layer 1">
    <g>
      <g>
        <path class="cls-1" d="M29.73,59.88c-16.17,.79-22.37-7.7-22.37-14.64,0-6.25,5.07-11.82,12.2-11.82,4.79,0,8.3,2.24,11.14,6.05l.29-.1c-3.23-5.08-6.94-7.22-12.21-7.22-1.66,0-3.32,.29-4.88,.78-1.56-3.61-2.35-6.84-2.35-9.67,0-13.67,11.71-18.08,21.67-18.08,12.6,0,18.27,5.17,18.27,10.73,0,2.83-1.56,5.76-4.29,8.11-3.52-3.32-9.38-5.66-14.07-6.05l-.1,.2c10.75,2.83,17.01,8.2,17.1,17.28s-3.49,23.6-20.4,24.43Z"/>
        <path class="cls-1" d="M66.15,41.4c5.67,0,10.75,2.24,10.75,7.12,0,5.18-5.95,13.29-11.91,13.29-5.86,0-8.7-8-8.7-12.6,0-4.49,2.63-7.81,9.86-7.82Z"/>
      </g>
      <g>
        <path class="cls-2" d="M22.37,54.7C6.21,55.49,0,46.99,0,40.06c0-6.25,5.07-11.82,12.2-11.82,4.79,0,8.3,2.24,11.14,6.05l.29-.1c-3.23-5.08-6.94-7.22-12.21-7.22-1.66,0-3.32,.29-4.88,.78-1.56-3.61-2.35-6.84-2.35-9.67C4.18,4.41,15.9,0,25.86,0c12.6,0,18.27,5.17,18.27,10.73,0,2.83-1.56,5.76-4.29,8.11-3.52-3.32-9.38-5.66-14.07-6.05l-.1,.2c10.75,2.83,17.01,8.2,17.1,17.28s-3.49,23.6-20.4,24.43Z"/>
        <path class="cls-2" d="M58.8,36.22c5.67,0,10.75,2.24,10.75,7.12,0,5.18-5.95,13.29-11.91,13.29-5.86,0-8.7-8-8.7-12.6,0-4.49,2.63-7.81,9.86-7.82Z"/>
      </g>
    </g>
  </g>
</svg>